<svg width="30" height="30" viewBox="0 0 30 30" fill="none" xmlns="http://www.w3.org/2000/svg">
<g clip-path="url(#clip0_4_32)">
<path d="M8.75 25H21.25" stroke="#281F10" stroke-width="2" stroke-linecap="round" stroke-linejoin="round"/>
<path d="M7.5 7.5L15 6.25L22.5 7.5" stroke="#281F10" stroke-width="2" stroke-linecap="round" stroke-linejoin="round"/>
<path d="M15 3.75V25" stroke="#281F10" stroke-width="2" stroke-linecap="round" stroke-linejoin="round"/>
<path d="M11.25 15L7.5 7.5L3.75 15C3.75 15.9946 4.14509 16.9484 4.84835 17.6517C5.55161 18.3549 6.50544 18.75 7.5 18.75C8.49456 18.75 9.44839 18.3549 10.1517 17.6517C10.8549 16.9484 11.25 15.9946 11.25 15Z" stroke="#281F10" stroke-width="2" stroke-linecap="round" stroke-linejoin="round"/>
<path d="M26.25 15L22.5 7.5L18.75 15C18.75 15.9946 19.1451 16.9484 19.8483 17.6517C20.5516 18.3549 21.5054 18.75 22.5 18.75C23.4946 18.75 24.4484 18.3549 25.1517 17.6517C25.8549 16.9484 26.25 15.9946 26.25 15Z" stroke="#281F10" stroke-width="2" stroke-linecap="round" stroke-linejoin="round"/>
</g>
<defs>
<clipPath id="clip0_4_32">
<rect width="30" height="30" fill="white"/>
</clipPath>
</defs>
</svg>
