<svg width="30" height="30" viewBox="0 0 30 30" fill="none" xmlns="http://www.w3.org/2000/svg">
<g clip-path="url(#clip0_4_58)">
<path d="M11.25 7.5C11.25 8.49456 11.6451 9.44839 12.3483 10.1517C13.0516 10.8549 14.0054 11.25 15 11.25C15.9946 11.25 16.9484 10.8549 17.6517 10.1517C18.3549 9.44839 18.75 8.49456 18.75 7.5C18.75 6.50544 18.3549 5.55161 17.6517 4.84835C16.9484 4.14509 15.9946 3.75 15 3.75C14.0054 3.75 13.0516 4.14509 12.3483 4.84835C11.6451 5.55161 11.25 6.50544 11.25 7.5Z" stroke="#281F10" stroke-width="2" stroke-linecap="round" stroke-linejoin="round"/>
<path d="M8.54375 11.25H21.4563C21.749 11.25 22.0325 11.3527 22.2572 11.5402C22.482 11.7277 22.6339 11.9882 22.6863 12.2763L24.7325 23.5263C24.7653 23.7064 24.7581 23.8916 24.7114 24.0686C24.6647 24.2457 24.5797 24.4104 24.4624 24.551C24.345 24.6915 24.1982 24.8046 24.0324 24.8822C23.8665 24.9598 23.6856 25 23.5025 25H6.4975C6.31438 25 6.1335 24.9598 5.96763 24.8822C5.80176 24.8046 5.65497 24.6915 5.53764 24.551C5.4203 24.4104 5.33529 24.2457 5.28861 24.0686C5.24193 23.8916 5.23472 23.7064 5.2675 23.5263L7.31375 12.2763C7.36615 11.9882 7.51798 11.7277 7.74276 11.5402C7.96754 11.3527 8.25101 11.25 8.54375 11.25Z" stroke="#281F10" stroke-width="2" stroke-linecap="round" stroke-linejoin="round"/>
</g>
<defs>
<clipPath id="clip0_4_58">
<rect width="30" height="30" fill="white"/>
</clipPath>
</defs>
</svg>
